# xmcd
#
# Track frame offsets:
#	150
#	23797
#	52719
#	62278
#	79689
#	100115
#	126357
#	143560
#	165536
#	169137
#	188037
#	224327
#	239889
#	252151
#	273637
#
# Disc length: 3913 seconds
#
# Revision: 1
# Processed by: cddbd v1.4PL0 Copyright (c) Steve Scherf et al.
# Submitted via: audiograbber 1.82.02
#
DISCID=cb0f470f
DTITLE=Andy James Court - Only You
DYEAR=1900
DGENRE=
TTITLE0=Yes Lord
TTITLE1=Callin on Jesus
TTITLE2=Jesus Blood
TTITLE3=One Big Family
TTITLE4=Only You
TTITLE5=Ecstasy
TTITLE6=C'mon into the Light
TTITLE7=Beside Still Waters
TTITLE8=Jesus Blood - Luke
TTITLE9=Inside Out
TTITLE10=Get To Know Jesus
TTITLE11=Holy Ghost Fever
TTITLE12=James
TTITLE13=Jesus Is King
TTITLE14=Only You - Reprise
EXTD=
EXTT0=
EXTT1=
EXTT2=
EXTT3=
EXTT4=
EXTT5=
EXTT6=
EXTT7=
EXTT8=
EXTT9=
EXTT10=
EXTT11=
EXTT12=
EXTT13=
EXTT14=
PLAYORDER=
